# xmcd
#
# Track frame offsets: 
#        150
#        11978
#        21875
#        41448
#        51152
#        67271
#        76369
#        87573
#        96007
#        112541
#        126624
#        137851
#        150086
#        165730
#        180349
#        191481
#        211088
#        225313
#
# Disc length: 3280 seconds
#
# Revision: 1
# Processed by: cddbd v1.5.2PL0 Copyright (c) Steve Scherf et al.
# Submitted via: ExactAudioCopy v0.95a3
#
DISCID=e40cce12
DTITLE=Zhu Feng Bo - A Hundred Collection Items From The 20th Century
DYEAR=1996
DGENRE=Pop
TTITLE0=Driving Cattle
TTITLE1=Have A Cup Of Tea
TTITLE2=Skiing Song
TTITLE3=Embroidering The Pouch
TTITLE4=Tuberoses
TTITLE5=The North Winds Are Blowing
TTITLE6=Tying The Plait With Ted Knitting Wool
TTITLE7=Xier Waiting Aloud For Daddy's Death
TTITLE8=Olive
TTITLE9=A Beautiful Spirit
TTITLE10=Singing By The Nile Riverside
TTITLE11=The Last Rose Of Summer
TTITLE12=Orchid
TTITLE13=The Fair Mountain Girls
TTITLE14=Selling Flowers
TTITLE15=Recalling My Childhood
TTITLE16=Red River Valley
TTITLE17=Nostalgia For My Hometown
EXTD=
EXTT0=
EXTT1=
EXTT2=
EXTT3=
EXTT4=
EXTT5=
EXTT6=
EXTT7=
EXTT8=
EXTT9=
EXTT10=
EXTT11=
EXTT12=
EXTT13=
EXTT14=
EXTT15=
EXTT16=
EXTT17=
PLAYORDER=
